<svg xmlns="http://www.w3.org/2000/svg" width="22" height="22" viewBox="0 0 22 22" fill="none">
  <path d="M12.1389 11.0001L21.0132 2.12593C21.3275 1.81164 21.3275 1.30113 21.0132 0.986832V0.986832C20.6989 0.672537 20.1884 0.672538 19.8741 0.986832L10.9999 9.86103L2.12565 0.985732L2.12564 0.985721C1.81135 0.671426 1.30084 0.671426 0.986545 0.985721L1.16332 1.1625L0.986545 0.985721C0.672254 1.30001 0.67225 1.81051 0.986534 2.12481C0.986538 2.12481 0.986541 2.12482 0.986545 2.12482L9.86076 11.0001L0.986545 19.8743C0.672439 20.1885 0.67225 20.6985 0.985979 21.0129C1.14276 21.1711 1.34975 21.25 1.55554 21.25C1.76155 21.25 1.96759 21.171 2.12474 21.0155L2.12565 21.0145L10.9999 12.1392L19.8741 21.0134C20.0315 21.1709 20.238 21.25 20.4442 21.25C20.6502 21.25 20.8562 21.171 21.0134 21.0155L21.0143 21.0146C21.3286 20.7003 21.3286 20.1898 21.0143 19.8755L12.1389 11.0001Z" fill="black" stroke="black" stroke-width="0.5"/>
</svg>