<svg xmlns="http://www.w3.org/2000/svg" width="157" height="164" viewBox="0 0 157 164" fill="none">
    <path d="M47.4523 152.396L14.365 124.633C-2.28941 110.658 -4.47011 85.7326 9.50461 69.0782L19.604 57.0422L17.8813 37.3511C16.9265 26.4377 25.0319 16.778 35.9453 15.8232C40.0991 15.4536 44.1732 16.3785 47.7015 18.4583C48.69 9.20973 56.1186 1.62452 65.729 0.777498C74.4202 0.0171158 82.302 5.0064 85.6435 12.5575C88.7668 9.65315 92.8416 7.74165 97.4028 7.33639C107.988 6.40404 117.393 14.0093 118.821 24.4273C121.869 21.9401 125.598 20.4134 129.617 20.068C140.536 19.1065 150.195 27.212 151.144 38.1321L156.517 99.5385C157.85 114.773 153.171 129.619 143.336 141.339C133.502 153.06 119.694 160.245 104.459 161.578L82.6327 163.488C69.8057 164.61 57.3134 160.671 47.4523 152.396ZM20.6841 69.3877L16.2174 74.7109C5.34629 87.6666 7.04203 107.049 19.9977 117.92L53.085 145.684C61.1538 152.454 71.3754 155.678 81.869 154.759L103.696 152.85C116.597 151.721 128.299 145.628 136.624 135.707C144.949 125.785 148.917 113.203 147.789 100.302L142.416 38.8957C141.899 32.9822 136.3 28.2845 130.38 28.7963C124.282 29.3298 119.747 34.7336 120.281 40.8323L120.541 43.8076C120.647 45.0174 120.248 46.147 119.527 47.0063C118.806 47.8655 117.756 48.4487 116.553 48.5602C114.146 48.7708 112.018 46.9853 111.807 44.5779L110.197 26.1708C109.663 20.0721 104.259 15.5378 98.1607 16.0714C95.2102 16.3295 92.5273 17.7274 90.6234 19.9963C88.7196 22.2652 87.8088 25.1501 88.0669 28.1007L89.6774 46.5078C89.7832 47.7177 89.3844 48.8473 88.6635 49.7065C87.9425 50.5657 86.8993 51.1546 85.6894 51.2604C83.282 51.4711 81.1541 49.6855 80.9435 47.2781L78.5286 19.6052C77.9951 13.5065 72.5913 8.9722 66.4926 9.50576C60.3939 10.0393 55.8596 15.4431 56.3932 21.5418L58.8137 49.208C58.9195 50.4179 58.5207 51.5475 57.7997 52.4067C57.0788 53.266 56.0288 53.8492 54.8257 53.9607C52.4183 54.1713 50.2904 52.3857 50.0798 49.9784L48.7394 34.6576C48.222 28.7441 42.6235 24.0464 36.7033 24.5582C33.7528 24.8163 31.0699 26.2142 29.166 28.4831C27.2622 30.752 26.3514 33.6369 26.6095 36.5875L30.6502 82.772C30.756 83.9818 30.3572 85.1114 29.6363 85.9707C28.9153 86.8299 27.8654 87.4131 26.6622 87.5246C24.2548 87.7352 22.1269 85.9497 21.9163 83.5423L20.6841 69.3877Z" fill="#E5DAD4"/>
</svg>