<svg xmlns="http://www.w3.org/2000/svg" width="199" height="162" viewBox="0 0 199 162" fill="none">
    <path d="M25.3329 121.379H12.1904C10.9813 121.379 10 120.397 10 119.188V79.7607C10 79.1562 10.2497 78.5779 10.6878 78.1661C11.1259 77.7499 11.7217 77.544 12.3175 77.5747C16.8297 77.8419 31.8429 78.9941 35.5973 82.5513C36.0791 83.0113 36.3332 83.6685 36.2719 84.3343C35.2775 95.7245 27.7336 118.89 27.4138 119.872C27.1203 120.765 26.2792 121.379 25.3329 121.379ZM14.3808 116.998H23.7339C25.3636 111.855 30.6162 94.8089 31.7815 85.2149C29.0172 83.8744 21.4165 82.6652 14.3808 82.1089V116.998Z" fill="#436E8F"/>
    <path d="M68.6855 130C65.8335 130 63.2883 129.194 59.6084 127.805L26.8309 116.884C25.6831 116.503 25.0654 115.263 25.4466 114.115C25.8321 112.967 27.0762 112.354 28.2196 112.731L61.0759 123.683C68.9658 126.662 69.6098 126.907 88.0269 119.355L109.743 109.48C107.329 106.554 103.43 105.222 99.601 106.168L82.8137 110.356C81.6133 110.641 80.448 109.936 80.1589 108.762C79.8697 107.588 80.5838 106.401 81.7535 106.107L98.5365 101.91C105.125 100.259 111.867 103.356 114.908 109.441C115.175 109.975 115.21 110.593 115.013 111.154C114.811 111.714 114.391 112.17 113.852 112.415L89.7573 123.367C78.3321 128.059 73.1276 130 68.6855 130Z" fill="#436E8F"/>
    <path d="M73.2023 112.289C72.1947 112.289 71.1871 112.192 70.1971 111.995L51.1886 108.193C50.0014 107.956 49.2304 106.804 49.4669 105.617C49.7079 104.429 50.9126 103.654 52.0429 103.899L71.0513 107.702C72.6328 108.017 74.2975 107.978 75.8571 107.588L80.0627 106.537C79.7955 102.537 77.8416 100.622 72.992 99.4134L33.6214 90.6648C32.4386 90.402 31.6982 89.2323 31.9567 88.0495C32.2196 86.871 33.3849 86.135 34.5721 86.3847L73.9996 95.1464C81.2631 96.9601 84.4742 100.78 84.4742 107.544V108.236C84.4742 109.24 83.7908 110.116 82.8139 110.361L76.9173 111.833C75.7082 112.135 74.4552 112.289 73.2023 112.289Z" fill="#436E8F"/>
    <path d="M73.5222 90.7126C72.3131 90.7126 71.3318 89.7313 71.3318 88.5222V27.1904C71.3318 25.9813 72.3131 25 73.5222 25C74.7313 25 75.7126 25.9813 75.7126 27.1904V88.5222C75.7126 89.7313 74.7313 90.7126 73.5222 90.7126Z" fill="#436E8F"/>
    <path d="M112.95 68.8084H34.0947C32.8856 68.8084 31.9043 67.8271 31.9043 66.618C31.9043 65.4089 32.8856 64.4276 34.0947 64.4276H112.95C114.159 64.4276 115.14 65.4089 115.14 66.618C115.14 67.8271 114.159 68.8084 112.95 68.8084Z" fill="#436E8F"/>
    <path d="M106.379 46.9042H40.666C39.4569 46.9042 38.4756 45.9229 38.4756 44.7138C38.4756 43.5047 39.4569 42.5234 40.666 42.5234H106.379C107.588 42.5234 108.569 43.5047 108.569 44.7138C108.569 45.9229 107.588 46.9042 106.379 46.9042Z" fill="#436E8F"/>
    <path d="M106.379 90.7126H73.5222C72.3131 90.7126 71.3318 89.7313 71.3318 88.5222C71.3318 87.3131 72.3131 86.3318 73.5222 86.3318H106.379C107.588 86.3318 108.569 87.3131 108.569 88.5222C108.569 89.7313 107.588 90.7126 106.379 90.7126Z" fill="#436E8F"/>
    <path d="M100.894 97.1481C100.32 97.1481 99.746 96.9247 99.3211 96.4778C98.4799 95.6104 98.5018 94.2217 99.3736 93.3806C106.72 86.2836 110.764 76.7772 110.764 66.6136C110.764 46.0806 94.0597 29.3765 73.5267 29.3765C52.9937 29.3765 36.2851 46.085 36.2851 66.618C36.2851 69.172 36.5568 71.748 37.0825 74.2757C37.3322 75.4629 36.5743 76.6195 35.3871 76.8692C34.2305 77.1145 33.0389 76.361 32.7936 75.1738C32.2022 72.3525 31.9043 69.4743 31.9043 66.618C31.9043 43.6711 50.5754 25 73.5223 25C96.4691 25 115.14 43.6711 115.14 66.618C115.14 77.9863 110.624 88.6098 102.418 96.5348C101.989 96.9422 101.441 97.1481 100.894 97.1481Z" fill="#436E8F"/>
    <path d="M87.7949 98.677C87.3831 98.677 86.9713 98.5631 86.6077 98.3265C85.5957 97.6738 85.2978 96.3157 85.9593 95.2993C90.5855 88.1279 93.2359 77.6752 93.2359 66.618C93.2359 46.4355 84.207 29.3808 73.5221 29.3808C62.8372 29.3808 53.8083 46.4311 53.8083 66.618C53.8083 72.4489 54.5399 78.0826 55.9812 83.3659C56.2966 84.5356 55.6132 85.7404 54.4436 86.0558C53.2651 86.3756 52.0691 85.6834 51.7537 84.5181C50.2117 78.8624 49.4275 72.8388 49.4275 66.618C49.4275 43.2812 60.0116 25 73.5221 25C87.0326 25 97.6167 43.2812 97.6167 66.618C97.6167 78.4944 94.7079 89.8145 89.6348 97.6738C89.2143 98.3221 88.5133 98.677 87.7949 98.677Z" fill="#436E8F"/>
</svg>