<svg xmlns="http://www.w3.org/2000/svg" width="161" height="162" viewBox="0 0 161 162" fill="none">
    <path d="M31.3043 161.5H128.696C146.231 161.5 160.5 147.231 160.5 129.696V46.2174C160.5 28.6822 146.231 14.4131 128.696 14.4131C126.5 14.4131 124.717 16.1952 124.717 18.3913C124.717 20.5875 126.5 22.3696 128.696 22.3696C141.846 22.3696 152.543 33.0675 152.543 46.2174V129.696C152.543 142.846 141.846 153.544 128.696 153.544H31.3043C18.1544 153.544 7.45652 142.846 7.45652 129.696V46.2174C7.45652 33.0675 18.1544 22.3696 31.3043 22.3696C33.5005 22.3696 35.2826 20.5875 35.2826 18.3913C35.2826 16.1952 33.5005 14.4131 31.3043 14.4131C13.7691 14.4131 -0.5 28.6822 -0.5 46.2174V129.696C-0.5 147.231 13.7691 161.5 31.3043 161.5Z" fill="#E5DAD4" stroke="#E5DAD4"/>
    <path d="M59.1304 22.3696H100.87C103.066 22.3696 104.848 20.5875 104.848 18.3913C104.848 16.1952 103.066 14.4131 100.87 14.4131H59.1304C56.9343 14.4131 55.1522 16.1952 55.1522 18.3913C55.1522 20.5875 56.9343 22.3696 59.1304 22.3696Z" fill="#E5DAD4" stroke="#E5DAD4"/>
    <path d="M3.47826 57.1521H156.522C158.718 57.1521 160.5 55.37 160.5 53.1738C160.5 50.9777 158.718 49.1956 156.522 49.1956H3.47826C1.28212 49.1956 -0.5 50.9777 -0.5 53.1738C-0.5 55.37 1.28212 57.1521 3.47826 57.1521Z" fill="#E5DAD4" stroke="#E5DAD4"/>
    <path d="M41.2391 32.3043C41.2391 34.5005 43.0213 36.2826 45.2174 36.2826C47.4135 36.2826 49.1957 34.5005 49.1957 32.3043V4.47826C49.1957 2.28212 47.4135 0.5 45.2174 0.5C43.0213 0.5 41.2391 2.28212 41.2391 4.47826V32.3043Z" fill="#E5DAD4" stroke="#E5DAD4"/>
    <path d="M110.804 32.3043C110.804 34.5005 112.586 36.2826 114.783 36.2826C116.979 36.2826 118.761 34.5005 118.761 32.3043V4.47826C118.761 2.28212 116.979 0.5 114.783 0.5C112.586 0.5 110.804 2.28212 110.804 4.47826V32.3043Z" fill="#E5DAD4" stroke="#E5DAD4"/>
    <path d="M69.0652 136.652C69.0652 142.681 73.9708 147.587 80 147.587C86.0292 147.587 90.9348 142.681 90.9348 136.652C90.9348 130.623 86.0292 125.717 80 125.717C73.9708 125.717 69.0652 130.623 69.0652 136.652ZM77.0217 136.652C77.0217 135.008 78.3561 133.674 80 133.674C81.6439 133.674 82.9783 135.008 82.9783 136.652C82.9783 138.296 81.6439 139.63 80 139.63C78.3561 139.63 77.0217 138.296 77.0217 136.652Z" fill="#E5DAD4" stroke="#E5DAD4"/>
    <path d="M80.0013 119.761H79.9457C73.9859 119.761 68.9822 115.099 68.56 109.154C68.56 109.154 68.56 109.154 68.56 109.154L66.1044 74.8239C65.8856 71.8051 66.9426 68.8095 69.0058 66.5932C71.0691 64.3768 73.9843 63.1086 77.01 63.1086H82.937C85.9627 63.1086 88.8779 64.3768 90.9412 66.5932C93.0043 68.8094 94.0613 71.8048 93.8427 74.8234L80.0013 119.761ZM80.0013 119.761C85.9611 119.761 90.9648 115.099 91.387 109.154C91.387 109.154 91.387 109.154 91.387 109.154L93.8426 74.8239L80.0013 119.761ZM76.4931 108.582L76.4931 108.582L74.0375 74.2513C74.0375 74.2513 74.0375 74.2512 74.0375 74.2512C73.9779 73.4171 74.2627 72.6209 74.8298 72.012C75.3962 71.4039 76.1681 71.0652 77.01 71.0652H82.937C83.7685 71.0652 84.5425 71.4084 85.119 72.0209C85.6897 72.6273 85.9693 73.4218 85.9096 74.2582L83.4539 108.589L83.4539 108.589C83.3264 110.393 81.8057 111.804 80.0013 111.804H79.9457C78.1419 111.804 76.6208 110.393 76.4931 108.582Z" fill="#E5DAD4" stroke="#E5DAD4"/>
</svg>