<svg xmlns="http://www.w3.org/2000/svg" width="105" height="105" viewBox="0 0 105 105" fill="none">
    <g clip-path="url(#clip0_39_251)">
        <path d="M89.6875 105.009H15.3125C6.86875 105.009 0 98.1399 0 89.6962V15.3212C0 6.87742 6.86875 0.00866699 15.3125 0.00866699H89.6875C98.1312 0.00866699 105 6.87742 105 15.3212V89.6962C105 98.1399 98.1312 105.009 89.6875 105.009ZM15.3125 4.38367C9.27938 4.38367 4.375 9.29242 4.375 15.3212V89.6962C4.375 95.7249 9.27938 100.634 15.3125 100.634H89.6875C95.7206 100.634 100.625 95.7249 100.625 89.6962V15.3212C100.625 9.29242 95.7206 4.38367 89.6875 4.38367H15.3125Z" fill="#4B88BA"/>
        <path d="M37.1875 35.0087H2.1875C0.98 35.0087 0 34.0287 0 32.8212C0 31.6137 0.98 30.6337 2.1875 30.6337H37.1875C38.395 30.6337 39.375 31.6137 39.375 32.8212C39.375 34.0287 38.395 35.0087 37.1875 35.0087Z" fill="#4B88BA"/>
        <path d="M102.812 35.0087H67.8125C66.605 35.0087 65.625 34.0287 65.625 32.8212C65.625 31.6137 66.605 30.6337 67.8125 30.6337H102.812C104.02 30.6337 105 31.6137 105 32.8212C105 34.0287 104.02 35.0087 102.812 35.0087Z" fill="#4B88BA"/>
        <path d="M89.6875 26.2587H76.5625C75.355 26.2587 74.375 25.2787 74.375 24.0712V10.9462C74.375 9.73873 75.355 8.75873 76.5625 8.75873H89.6875C90.895 8.75873 91.875 9.73873 91.875 10.9462V24.0712C91.875 25.2787 90.895 26.2587 89.6875 26.2587ZM78.75 21.8837H87.5V13.1337H78.75V21.8837Z" fill="#4B88BA"/>
        <path d="M10.9375 21.8837C9.73 21.8837 8.75 20.9037 8.75 19.6962V4.38373C8.75 3.17623 9.73 2.19623 10.9375 2.19623C12.145 2.19623 13.125 3.17623 13.125 4.38373V19.6962C13.125 20.9037 12.145 21.8837 10.9375 21.8837Z" fill="#4B88BA"/>
        <path d="M19.6875 21.8837C18.48 21.8837 17.5 20.9037 17.5 19.6962V2.19623C17.5 0.988728 18.48 0.00872803 19.6875 0.00872803C20.895 0.00872803 21.875 0.988728 21.875 2.19623V19.6962C21.875 20.9037 20.895 21.8837 19.6875 21.8837Z" fill="#4B88BA"/>
        <path d="M28.4375 21.8837C27.23 21.8837 26.25 20.9037 26.25 19.6962V2.19623C26.25 0.988728 27.23 0.00872803 28.4375 0.00872803C29.645 0.00872803 30.625 0.988728 30.625 2.19623V19.6962C30.625 20.9037 29.645 21.8837 28.4375 21.8837Z" fill="#4B88BA"/>
        <path d="M52.5 78.7587C38.0231 78.7587 26.25 66.9856 26.25 52.5087C26.25 38.0319 38.0231 26.2587 52.5 26.2587C66.9769 26.2587 78.75 38.0319 78.75 52.5087C78.75 66.9856 66.9769 78.7587 52.5 78.7587ZM52.5 30.6337C40.4381 30.6337 30.625 40.4469 30.625 52.5087C30.625 64.5706 40.4381 74.3837 52.5 74.3837C64.5619 74.3837 74.375 64.5706 74.375 52.5087C74.375 40.4469 64.5619 30.6337 52.5 30.6337Z" fill="#4B88BA"/>
        <path d="M52.5 65.6337C45.2637 65.6337 39.375 59.745 39.375 52.5087C39.375 45.2725 45.2637 39.3837 52.5 39.3837C59.7362 39.3837 65.625 45.2725 65.625 52.5087C65.625 59.745 59.7362 65.6337 52.5 65.6337ZM52.5 43.7587C47.6744 43.7587 43.75 47.6831 43.75 52.5087C43.75 57.3344 47.6744 61.2587 52.5 61.2587C57.3256 61.2587 61.25 57.3344 61.25 52.5087C61.25 47.6831 57.3256 43.7587 52.5 43.7587Z" fill="#4B88BA"/>
    </g>
    <defs>
        <clipPath id="clip0_39_251">
        <rect width="105" height="105" fill="white"/>
        </clipPath>
    </defs>
</svg>