<svg xmlns="http://www.w3.org/2000/svg" width="165" height="165" viewBox="0 0 165 165" fill="none">
    <g clip-path="url(#clip0_24_72)">
        <path d="M82.5 165C37.0081 165 0 127.992 0 82.5C0 37.0081 37.0081 0 82.5 0C127.992 0 165 37.0081 165 82.5C165 127.992 127.992 165 82.5 165ZM82.5 6.875C40.8031 6.875 6.875 40.8031 6.875 82.5C6.875 124.197 40.8031 158.125 82.5 158.125C124.197 158.125 158.125 124.197 158.125 82.5C158.125 40.8031 124.197 6.875 82.5 6.875Z" fill="#E5DAD4"/>
        <path d="M24.4131 139.569C24.2756 139.569 24.145 139.562 24.0075 139.542C22.1237 139.322 20.7762 137.617 20.9962 135.726C21.6493 130.164 22.88 114.276 20.7831 107.594C20.0475 105.236 18.2531 103.441 16.1768 101.372C14.2312 99.4262 12.0243 97.2193 10.6356 94.2768C7.50059 87.5875 3.87059 62.6725 3.47184 59.8537C3.20372 57.9837 4.50997 56.2375 6.38684 55.9693C8.24309 55.7081 10.01 57.0006 10.2781 58.8912C11.8043 69.5543 14.8156 86.9962 16.8643 91.355C17.7306 93.2181 19.3393 94.82 21.0375 96.5181C23.4093 98.8899 26.0975 101.578 27.3418 105.538C30.3118 114.991 27.9262 135.664 27.8231 136.544C27.6237 138.277 26.1318 139.569 24.4131 139.569Z" fill="#E5DAD4"/>
        <path d="M88.7906 144.403C82.2937 144.403 74.3875 138.332 72.2631 127.875C71.7337 125.29 73.0331 122.636 74.2844 120.079C74.7656 119.082 75.5837 117.418 75.625 116.848C75.625 106.233 73.5006 97.7281 70.3381 95.7138C69.0043 94.875 64.3981 95.5075 61.3387 95.9338C57.2893 96.4838 53.4737 97.02 50.5106 96.085C46.8943 94.93 42.7075 90.0282 41.525 87.2988C39.8131 83.3319 39.05 74.5388 41.8 70.3038C47.9325 60.8988 51.4731 56.705 57.5575 55.11C62.4525 53.8175 70.8675 54.6632 78.9937 55.4744C83.8131 55.9557 90.8943 56.6775 93.3831 56.2169C93.5412 55.4263 93.3762 54.6494 92.8675 53.8657C90.9906 50.9781 84.5762 47.8638 72.2356 48.125C69.85 48.1594 66.9968 49.8232 64.24 51.4388C61.105 53.2675 58.1487 55 55 55C52.0025 55 49.6856 53.6113 48.6337 51.1844C46.9012 47.2107 49.2662 42.0819 52.3668 38.7613C55.5293 35.3719 59.4 33.6119 63.2981 33.9281C64.1162 32.1613 65.1887 29.9956 65.9656 28.9231C71.1012 21.8006 76.4912 15.1388 81.6681 13.8531C84.8031 13.09 90.4131 14.7538 94.4143 16.225C96.2637 12.375 99.8387 6.27002 104.741 3.95315C106.466 3.15565 108.508 3.87752 109.319 5.5894C110.131 7.30815 109.395 9.3569 107.683 10.1681C103.888 11.9625 100.389 19.3806 99.4675 21.835C99.1443 22.7081 98.4706 23.4094 97.6181 23.7806C96.7587 24.1519 95.7893 24.1519 94.93 23.8013C90.1243 21.8006 84.6931 20.2675 83.3112 20.5288C79.8806 21.3813 73.6656 29.9956 71.6237 32.8281C70.9775 33.7219 69.5062 36.7881 68.4681 39.1806C67.7393 40.8375 65.8556 41.6557 64.1643 41.0575C61.4831 40.1019 59.0906 41.8206 57.9012 42.9344C55.5431 45.1481 54.7593 47.8225 54.945 48.4825C56.2856 48.125 58.6712 46.7363 60.7681 45.5056C64.13 43.5394 67.9456 41.3119 72.1393 41.25C85.2225 40.9132 94.7993 44.2132 98.6356 50.1325C100.581 53.1369 100.849 56.6913 99.3643 59.8882C97.4256 64.0407 91.5062 63.6419 78.3131 62.3219C71.1425 61.6 63.0162 60.7819 59.3106 61.765C55.99 62.6382 53.7143 64.625 47.5681 74.0713C46.5368 75.6457 46.7018 81.9363 47.8431 84.5763C48.5512 86.2125 51.5281 89.1894 52.6075 89.54C54.065 90.0007 57.585 89.5194 60.3968 89.1207C65.4018 88.4194 70.5787 87.7113 74.0368 89.9113C81.4 94.6069 82.5 108.818 82.5 116.875C82.5 118.924 81.5031 120.952 80.4581 123.097C79.9218 124.183 79.0281 126.019 79.0143 126.658C80.5818 134.283 86.3156 137.693 89.0725 137.514C96.2431 136.874 108.797 126.198 110.069 119.659C110.392 117.968 110.172 114.256 109.972 110.983C109.704 106.597 109.436 102.073 110.076 98.9863C110.722 95.8719 113.939 90.0213 115.94 86.5769C114.111 84.865 111.677 82.4794 110.653 81.0632C108.261 77.7494 103.909 67.8013 103.414 66.6738C102.891 65.4706 103.097 64.0819 103.943 63.085C104.789 62.0882 106.143 61.6619 107.401 61.9713C108.824 62.3357 116.05 64.1919 118.69 65.8281C122.712 68.31 129.876 76.0238 133.877 80.5132C133.973 79.8738 134.056 79.2138 134.117 78.6844C134.551 75.2469 135.197 70.0494 140.126 68.8463C147.819 66.9694 152.618 74.7038 156.908 81.5032C158.971 84.7825 161.109 88.165 162.999 89.5469C164.532 90.6675 164.862 92.8263 163.735 94.3525C162.607 95.8857 160.462 96.2157 158.929 95.0882C155.987 92.9294 153.615 89.1619 151.092 85.1744C148.184 80.5682 144.581 74.9444 141.756 75.5219C141.391 75.955 141.096 78.2788 140.944 79.5369C140.511 83.0294 139.851 88.3025 134.729 89.3063C133.554 89.5675 132.275 89.1207 131.457 88.1788C128.212 84.3975 118.937 74.0575 115.074 71.6788C114.675 71.4313 113.871 71.1013 112.839 70.7369C114.146 73.4525 115.445 75.9619 116.236 77.055C117.067 78.21 120.471 81.4482 122.616 83.38C123.846 84.4869 124.114 86.3157 123.255 87.7319C120.856 91.6644 117.267 98.1957 116.813 100.389C116.359 102.582 116.614 106.831 116.841 110.571C117.081 114.606 117.315 118.422 116.82 120.966C114.819 131.278 99.1856 143.516 89.6912 144.361C89.3818 144.389 89.0862 144.403 88.7906 144.403Z" fill="#E5DAD4"/>
    </g>
    <defs>
        <clipPath id="clip0_24_72">
        <rect width="165" height="165" fill="white"/>
        </clipPath>
    </defs>
</svg>