<svg xmlns="http://www.w3.org/2000/svg" width="30" height="20" viewBox="0 0 30 20" fill="none">
  <path d="M29.375 11.25H0.625C0.28 11.25 0 10.69 0 10C0 9.31 0.28 8.75 0.625 8.75H29.375C29.72 8.75 30 9.31 30 10C30 10.69 29.72 11.25 29.375 11.25Z" fill="black"/>
  <path d="M29.375 20H0.625C0.28 20 0 19.44 0 18.75C0 18.06 0.28 17.5 0.625 17.5H29.375C29.72 17.5 30 18.06 30 18.75C30 19.44 29.72 20 29.375 20Z" fill="black"/>
  <path d="M29.375 2.5H0.625C0.28 2.5 0 1.94 0 1.25C0 0.56 0.28 0 0.625 0H29.375C29.72 0 30 0.56 30 1.25C30 1.94 29.72 2.5 29.375 2.5Z" fill="black"/>
</svg>