<svg xmlns="http://www.w3.org/2000/svg" width="159" height="165" viewBox="0 0 159 165" fill="none">
    <path d="M147.812 144.375H144.375V140.938C144.375 139.04 142.835 137.5 140.938 137.5H130.625V103.125H134.062C139.748 103.125 144.375 98.4981 144.375 92.8125C144.375 87.1269 139.748 82.5 134.062 82.5H130.453C128.893 59.0288 111.622 39.8131 89.0519 35.365C88.22 31.9894 85.7381 29.2875 82.5 28.1325V20.625H99.6875C101.076 20.625 102.334 19.7862 102.864 18.5006C103.4 17.215 103.104 15.7369 102.121 14.7537L97.68 10.3125L102.121 5.87125C103.104 4.88812 103.4 3.41 102.864 2.12437C102.334 0.83875 101.076 0 99.6875 0H79.0625C77.165 0 75.625 1.54 75.625 3.4375V28.1325C72.3869 29.2875 69.905 31.9894 69.0731 35.365C46.5025 39.8131 29.2325 59.0288 27.6719 82.5H24.0625C18.3769 82.5 13.75 87.1269 13.75 92.8125C13.75 98.4981 18.3769 103.125 24.0625 103.125H27.5V137.5H17.1875C15.29 137.5 13.75 139.04 13.75 140.938V144.375H10.3125C4.62687 144.375 0 149.002 0 154.688V161.562C0 163.46 1.54 165 3.4375 165H154.688C156.585 165 158.125 163.46 158.125 161.562V154.688C158.125 149.002 153.498 144.375 147.812 144.375ZM82.5 6.88188H91.3894L90.3856 7.88562C89.045 9.22625 89.045 11.4056 90.3856 12.7463L91.3894 13.75H82.5V6.88188ZM79.0625 41.25C102.548 41.25 121.859 59.455 123.619 82.5H34.5056C36.2656 59.455 55.5775 41.25 79.0625 41.25ZM24.0625 96.25C22.165 96.25 20.625 94.7031 20.625 92.8125C20.625 90.9219 22.165 89.375 24.0625 89.375H134.062C135.96 89.375 137.5 90.9219 137.5 92.8125C137.5 94.7031 135.96 96.25 134.062 96.25H24.0625ZM123.75 103.125V137.5H116.875V103.125H123.75ZM110 103.125V137.5H103.125V103.125H110ZM96.25 103.125V137.5H89.375V103.125H96.25ZM82.5 103.125V137.5H75.625V103.125H82.5ZM68.75 103.125V137.5H61.875V103.125H68.75ZM55 103.125V137.5H48.125V103.125H55ZM41.25 103.125V137.5H34.375V103.125H41.25ZM151.25 158.125H6.875V154.688C6.875 152.797 8.415 151.25 10.3125 151.25H17.1875C19.085 151.25 20.625 149.71 20.625 147.812V144.375H137.5V147.812C137.5 149.71 139.04 151.25 140.938 151.25H147.812C149.71 151.25 151.25 152.797 151.25 154.688V158.125Z" fill="#E5DAD4"/>
</svg>