<svg xmlns="http://www.w3.org/2000/svg" width="219" height="162" viewBox="0 0 219 162" fill="none">
    <path d="M122.5 121H17.5C13.365 121 10 117.635 10 113.5V48.5C10 44.365 13.365 41 17.5 41H122.5C126.635 41 130 44.365 130 48.5V113.5C130 117.635 126.635 121 122.5 121ZM17.5 46C16.12 46 15 47.12 15 48.5V113.5C15 114.88 16.12 116 17.5 116H122.5C123.88 116 125 114.88 125 113.5V48.5C125 47.12 123.88 46 122.5 46H17.5Z" fill="#3C75A3"/>
    <path d="M70 86.01C67.42 86.01 64.845 85.21 62.645 83.61L12.305 47.21C11.19 46.4 10.94 44.835 11.745 43.715C12.55 42.595 14.115 42.345 15.235 43.155L65.58 79.56C68.225 81.485 71.77 81.48 74.41 79.565L124.775 43.155C125.885 42.345 127.455 42.595 128.265 43.715C129.075 44.835 128.82 46.4 127.705 47.205L77.345 83.61C75.15 85.21 72.575 86.01 70 86.01Z" fill="#3C75A3"/>
    <path d="M13.845 119.405C13.07 119.405 12.31 119.05 11.82 118.375C11.01 117.255 11.26 115.695 12.375 114.88L61.84 78.975C62.965 78.16 64.52 78.415 65.335 79.53C66.145 80.65 65.895 82.2099 64.78 83.0249L15.315 118.93C14.865 119.25 14.35 119.405 13.845 119.405Z" fill="#3C75A3"/>
    <path d="M126.15 119.405C125.64 119.405 125.125 119.25 124.685 118.93L75.2248 83.025C74.1098 82.21 73.8598 80.65 74.6698 79.53C75.4798 78.41 77.0348 78.16 78.1648 78.975L127.625 114.88C128.74 115.695 128.99 117.255 128.18 118.375C127.69 119.05 126.925 119.405 126.15 119.405Z" fill="#3C75A3"/>
</svg>